<?xml version="1.0" encoding="UTF-8" standalone="no"?>
<!--?xml version="1.0" encoding="UTF-8" standalone="no" ?-->

<svg
   version="1.1"
   width="353.01"
   height="85.81439999999998"
   viewBox="-175.59250000000003 -42.90719999999999 353.01 85.81439999999998"
   xml:space="preserve"
   id="svg3"
   sodipodi:docname="2375685.svg"
   xmlns:inkscape="http://www.inkscape.org/namespaces/inkscape"
   xmlns:sodipodi="http://sodipodi.sourceforge.net/DTD/sodipodi-0.dtd"
   xmlns="http://www.w3.org/2000/svg"
   xmlns:svg="http://www.w3.org/2000/svg"><sodipodi:namedview
   id="namedview3"
   pagecolor="#ffffff"
   bordercolor="#000000"
   borderopacity="0.25"
   inkscape:showpageshadow="2"
   inkscape:pageopacity="0.0"
   inkscape:pagecheckerboard="0"
   inkscape:deskcolor="#d1d1d1" />
<desc
   id="desc1">Created by Logonomy.ir</desc>
<defs
   id="defs1">
</defs>


<g
   transform="matrix(1 0 0 1 -39 0)"
   style=""
   id="9ff5925f-b6c7-43a8-8d96-cb4385610da1">
<linearGradient
   id="SVGID_1485"
   gradientUnits="objectBoundingBox"
   gradientTransform="matrix(1 0 0 1 0 0)"
   x1="1"
   y1="0"
   x2="0"
   y2="0">
<stop
   offset="0%"
   style="stop-color:#0c9d92;stop-opacity: 0.7803921568627451"
   id="stop1" />
<stop
   offset="100%"
   style="stop-color:#14213d;"
   id="stop2" />
</linearGradient>
		<path
   d="m -92.005998,9.4912001 h 32.697601 q 3.5568,0 3.5568,-3.3696 0,-3.6816001 -3.5568,-3.6816001 h -25.209601 v -9.2976003 h 25.209601 q 3.5568,0 3.5568,-3.8063997 0,-3.1824 -3.5568,-3.1824 H -92.005998 Z M -102.614,-24.080001 h 46.113603 q 11.9808,0 11.9808,11.044801 0,9.0479998 -7.5504,10.3583998 3.6192,0.7488001 5.5536,3.49440012 1.9968,2.74560008 1.9968,7.67520018 0,11.1071999 -11.9808,11.1071999 H -102.614 Z M -36.719612,19.6 Z m 10.608,0 h -10.608 v -43.680001 h 10.608 z m 8.299173,0 z M -2.2748382,-7.1072003 H 22.560362 q 3.2448,0 5.0544,-1.6848 Q 29.424363,-10.5392 29.923563,-13.784 H -7.2044384 V 19.6 H -17.812439 v -43.680001 h 58.032002 v 8.361601 q 0,16.53599992 -16.099201,18.2208 L 40.718763,19.6 H 27.864362 L 11.016362,2.6896 H -2.2748382 Z M 47.89473,19.6 Z M 92.385931,-13.784 H 47.89473 v -10.296001 h 55.0992 v 21.9648009 q 0,5.1168001 -1.4976,9.1728002 -1.4352,3.9935999 -4.243199,6.8015999 -2.7456,2.808 -6.8016,4.3056 -4.056,1.4352 -9.2352,1.4352 H 47.89473 V -7.1072003 h 10.608 V 9.2416001 h 22.464001 q 11.4192,0 11.4192,-11.5440003 z"
   id="text2"
   style="font-size:62.4px;white-space:pre;fill:url(#SVGID_1485)"
   aria-label="Bird" />
</g>
<g
   transform="matrix(1 0 0 1 92.75 -0.18)"
   style=""
   id="e113ac3d-87bf-467b-87a6-b9d8162fd871">
		<path
   d="M -7.2917767,-2.4587688 -14.193632,4.980196 c -2.148438,2.2290039 -2.819824,4.9414062 -2.819824,8.029785 v 4.27002 h 4.780273 V 12.95627 c 0,-2.255859 0.563965,-3.8940428 2.01416,-5.4516599 l 9.34570337,-9.9633789 -9.34570337,-9.8828122 c -1.450195,-1.584473 -2.01416,-3.195801 -2.01416,-5.451661 v -4.32373 h -4.780273 v 4.27002 c 0,3.088378 0.671386,5.720214 2.819824,8.0297847 z m 7.19726567,0 9.21142573,9.9633789 C 10.647676,9.0622272 11.265352,10.700411 11.265352,12.95627 v 4.323731 h 4.726563 v -4.27002 c 0,-3.0883788 -0.671387,-5.8007811 -2.819824,-8.029785 l -6.848145,-7.4389648 6.848145,-7.3583985 c 2.148437,-2.3095707 2.819824,-4.9414067 2.819824,-8.0297847 v -4.27002 h -4.726563 v 4.32373 c 0,2.25586 -0.617676,3.867188 -2.1484373,5.451661 z M -11.722929,13.009981 v 4.27002 h 4.7802734 v -4.108887 c 0,-0.83252 0.1611328,-1.557617 0.7250977,-2.175293 L -0.49734306,4.6310749 5.1960163,10.995821 c 0.6176758,0.617676 0.7788086,1.342773 0.7788086,2.175293 v 4.108887 h 4.7265621 v -4.27002 c 0,-2.094726 -0.563964,-3.5986327 -1.9604488,-5.1293944 L -0.49734306,-2.0022259 -9.7624798,7.8805866 c -1.3427732,1.5307617 -1.9604492,3.0346684 -1.9604492,5.1293944 z m 0,-30.856933 c 0,2.067871 0.617676,3.598632 1.9604492,5.102539 l 9.26513674,9.9096676 9.23828126,-9.9096676 c 1.3964848,-1.503907 1.9604488,-3.034668 1.9604488,-5.102539 v -4.27002 H 5.9748249 v 4.082031 c 0,0.859375 -0.1611328,1.584473 -0.7788086,2.202149 l -5.69335936,6.3647458 -5.72021484,-6.3647458 c -0.5639649,-0.617676 -0.7250977,-1.342774 -0.7250977,-2.202149 v -4.082031 h -4.7802734 z"
   id="text3"
   style="font-size:55px;white-space:pre;fill:#0a4134;stroke:#ffffff;stroke-opacity:0"
   aria-label="X" />
</g>
</svg>
